<svg xmlns="http://www.w3.org/2000/svg" xmlns:xlink="http://www.w3.org/1999/xlink" viewBox="0 0 200.23 200.23"><defs><style>.cls-1{fill:url(#radial-gradient);}.cls-2{fill:#00884a;}.cls-3{fill:#0c598a;}</style><radialGradient id="radial-gradient" cx="100.11" cy="100.11" r="251.33" gradientUnits="userSpaceOnUse"><stop offset="0.13" stop-color="#fff"/><stop offset="1" stop-color="#cbdddd"/></radialGradient></defs><title>Asset 2</title><g id="Layer_2" data-name="Layer 2"><g id="Layer_1-2" data-name="Layer 1"><circle class="cls-1" cx="100.11" cy="100.11" r="100.11"/><path class="cls-2" d="M120.3,144.62a20.45,20.45,0,0,1-5.47,14,20.13,20.13,0,0,1-34.77-13.8V128.12a7.86,7.86,0,0,0-7.85-7.85H55.47a20.12,20.12,0,0,1,0-40.24H79.93V72.19H55.79c-15.12,0-28,12.37-28.29,27.5a28,28,0,0,0,28,28.44H72.21v16.74a28,28,0,1,0,55.94,0V120.19H120.3Z"/><path class="cls-3" d="M146.31,72.1H128V55.36a27.86,27.86,0,0,0-8.2-19.78c-7.95-7.95-20.67-11.14-33.51-4.9C78.43,34.52,72.08,45,72.08,53.81V109a19.05,19.05,0,0,0,19,19h53.63a27.88,27.88,0,0,0,19.78-8.19c8-7.95,11.13-20.65,4.92-33.48A25.66,25.66,0,0,0,146.31,72.1Zm6.85,46.33a17.94,17.94,0,0,1-7.93,1.76H93a13.07,13.07,0,0,1-13.07-13.07V55.36a20.2,20.2,0,0,1,26.92-19,13.94,13.94,0,0,1,2.11.9,20.26,20.26,0,0,1,11.21,18.1V74.82A5.12,5.12,0,0,0,125.29,80h21c5.62,0,12.64,3.92,15.44,8.79C168.29,100.13,164.2,113,153.16,118.43Z"/></g></g></svg>